<?xml version="1.0" standalone="no"?><svg xmlns="http://www.w3.org/2000/svg" viewBox="0 0 1440 320"><path fill="#000" fill-opacity="1" d="M0,288L0,192L36.9,192L36.9,288L73.8,288L73.8,288L110.8,288L110.8,224L147.7,224L147.7,256L184.6,256L184.6,160L221.5,160L221.5,256L258.5,256L258.5,224L295.4,224L295.4,256L332.3,256L332.3,192L369.2,192L369.2,128L406.2,128L406.2,128L443.1,128L443.1,224L480,224L480,160L516.9,160L516.9,128L553.8,128L553.8,64L590.8,64L590.8,160L627.7,160L627.7,128L664.6,128L664.6,288L701.5,288L701.5,288L738.5,288L738.5,192L775.4,192L775.4,160L812.3,160L812.3,256L849.2,256L849.2,64L886.2,64L886.2,192L923.1,192L923.1,128L960,128L960,224L996.9,224L996.9,224L1033.8,224L1033.8,256L1070.8,256L1070.8,32L1107.7,32L1107.7,288L1144.6,288L1144.6,192L1181.5,192L1181.5,192L1218.5,192L1218.5,256L1255.4,256L1255.4,288L1292.3,288L1292.3,32L1329.2,32L1329.2,224L1366.2,224L1366.2,160L1403.1,160L1403.1,96L1440,96L1440,320L1403.1,320L1403.1,320L1366.2,320L1366.2,320L1329.2,320L1329.2,320L1292.3,320L1292.3,320L1255.4,320L1255.4,320L1218.5,320L1218.5,320L1181.5,320L1181.5,320L1144.6,320L1144.6,320L1107.7,320L1107.7,320L1070.8,320L1070.8,320L1033.8,320L1033.8,320L996.9,320L996.9,320L960,320L960,320L923.1,320L923.1,320L886.2,320L886.2,320L849.2,320L849.2,320L812.3,320L812.3,320L775.4,320L775.4,320L738.5,320L738.5,320L701.5,320L701.5,320L664.6,320L664.6,320L627.7,320L627.7,320L590.8,320L590.8,320L553.8,320L553.8,320L516.9,320L516.9,320L480,320L480,320L443.1,320L443.1,320L406.2,320L406.2,320L369.2,320L369.2,320L332.3,320L332.3,320L295.4,320L295.4,320L258.5,320L258.5,320L221.5,320L221.5,320L184.6,320L184.6,320L147.7,320L147.7,320L110.8,320L110.8,320L73.8,320L73.8,320L36.9,320L36.9,320L0,320L0,320Z"></path></svg>